#!OML:ASF I:\salsa\salsa 7_09\Patient 1\Session 1\dancerfemale.ASF
:FULLY-SPECIFIED
:DEGREES
1905
root 24.4332 15.7905 -3.78279 -1694.16 1340.5 -467.042
lowerback 4.00768 2.45822 -2.70619
upperback -3.49967 2.97754 -1.67372
thorax -5.93469 1.5295 -0.496127
lowerneck 3.79707 -5.8845 -14.1432
upperneck 8.04109 -8.85296 8.18581
head 2.76523 -4.70916 4.58219
rclavicle -1.66979e-014 -7.95139e-016
rhumerus 19.3868 -0.0135574 -100.18
rradius 41.6275
rwrist -29.4922
rhand -9.7116 -314.211
rfingers 7.12502
rthumb 16.2614 16.4512
lclavicle -1.66979e-014 -7.95139e-016
lhumerus 56.286 -45.7754 60.3256
lradius 45.0442
lwrist -33.4553
lhand -19.427 14.6075
lfingers 7.12502
lthumb 6.89294 -315.525
rfemur -35.5767 -7.1387 12.5087
rtibia 29.4136
rfoot -3.93413 -36.2333
rtoes 14.242
lfemur -7.64814 7.34125 -37.8526
ltibia 24.0344
lfoot -18.3687 -1.06022
ltoes -7.66378
1906
root 24.4188 15.7969 -3.76628 -1690.12 1340.68 -471.189
lowerback 3.93187 2.32735 -2.38153
upperback -3.57136 2.84043 -1.44206
thorax -5.95889 1.45526 -0.422346
lowerneck 3.74607 -5.93904 -14.2582
upperneck 8.10935 -8.91398 8.0317
head 2.80051 -4.74613 4.54675
rclavicle -1.41137e-014 1.74931e-014
rhumerus 19.1777 -0.052307 -99.5673
rradius 41.8384
rwrist -29.6741
rhand -9.83599 -314.442
rfingers 7.12502
rthumb 16.1416 16.2107
lclavicle -1.41137e-014 1.74931e-014
lhumerus 56.9917 -46.0341 59.1432
lradius 45.6173
lwrist -32.7547
lhand -19.2177 14.6378
lfingers 7.12502
lthumb 7.09505 -315.501
rfemur -35.519 -8.23203 12.8873
rtibia 29.6203
rfoot -2.37244 -35.4874
rtoes 12.589
lfemur -7.44657 6.67666 -37.5455
ltibia 24.1292
lfoot -18.4741 -0.798165
ltoes -7.35966
1907
root 24.3858 15.8005 -3.75117 -1685.39 1340.72 -476.025
lowerback 3.93925 2.19564 -2.08857
upperback -3.6625 2.69151 -1.28349
thorax -6.04994 1.37416 -0.410226
lowerneck 3.54921 -6.01976 -14.2861
upperneck 8.32746 -8.99959 7.93021
head 2.90491 -4.79223 4.50588
rclavicle 3.26007e-014 -7.15625e-015
rhumerus 18.8481 -0.349482 -99.0333
rradius 42.1239
rwrist -29.6387
rhand -9.1893 -314.876
rfingers 7.12502
rthumb 16.7642 15.8277
lclavicle 3.26007e-014 -7.15625e-015
lhumerus 58.1654 -46.3699 57.294
lradius 46.3915
lwrist -31.8575
lhand -19.0857 14.6097
lfingers 7.12502
lthumb 7.22245 -315.534
rfemur -35.4967 -9.63227 13.332
rtibia 29.8879
rfoot -0.464476 -34.595
rtoes 12.4261
lfemur -7.14741 6.05952 -37.2474
ltibia 24.1952
lfoot -18.6077 -0.74124
ltoes -6.77505
1908
root 24.3348 15.8046 -3.74034 -1680.21 1340.64 -481.174
lowerback 3.81161 2.08616 -1.94735
upperback -3.86798 2.56064 -1.12981
thorax -6.19236 1.3075 -0.317821
lowerneck 3.65373 -6.07544 -14.294
upperneck 8.51504 -9.10419 7.91969
head 2.9559 -4.85328 4.50064
rclavicle -2.79292e-014 1.59028e-015
rhumerus 18.2109 -0.792524 -98.3657
rradius 42.4895
rwrist -29.6555
rhand -8.56313 -315.202
rfingers 7.12502
rthumb 17.3669 15.5541
lclavicle -2.79292e-014 1.59028e-015
lhumerus 59.5618 -46.8744 54.9707
lradius 47.4031
lwrist -30.7216
lhand -18.7929 14.6448
lfingers 7.12502
lthumb 7.50501 -315.508
rfemur -35.6607 -11.0216 13.81
rtibia 30.2371
rfoot 1.35305 -33.684
rtoes 13.2096
lfemur -6.90748 5.49492 -36.9607
ltibia 24.22
lfoot -18.7383 -0.844478
ltoes -6.73582
1909
root 24.2636 15.8116 -3.73316 -1675.15 1340.42 -486.139
lowerback 3.69431 1.86364 -1.78613
upperback -4.09553 2.2753 -1.02442
thorax -6.35941 1.16187 -0.273186
lowerneck 3.52964 -6.09088 -14.7905
upperneck 8.86782 -9.17424 8.36369
head 3.1314 -4.90036 4.70385
rclavicle -1.74931e-014 2.38542e-015
rhumerus 17.4802 -0.690331 -97.5984
rradius 42.9053
rwrist -30.1709
rhand -8.5176 -315.455
rfingers 7.12502
rthumb 17.4108 15.3047
lclavicle -1.74931e-014 2.38542e-015
lhumerus 60.5595 -47.074 52.6548
lradius 48.6234
lwrist -29.6927
lhand -18.5976 14.259
lfingers 7.12502
lthumb 7.69357 -315.901
rfemur -35.8859 -11.9058 14.1257
rtibia 30.6799
rfoot 2.61237 -33.3081
rtoes 14.0757
lfemur -6.70218 5.09974 -36.6963
ltibia 24.2621
lfoot -18.8775 -1.1092
ltoes -6.98213
1910
root 24.17 15.8175 -3.7287 -1670.9 1340.09 -490.329
lowerback 3.50276 1.71357 -1.88089
upperback -4.26506 2.07461 -0.890461
thorax -6.4351 1.07043 -0.0598296
lowerneck 3.67859 -6.2029 -14.8067
upperneck 8.85613 -9.34909 8.34717
head 3.12461 -4.99218 4.69802
rclavicle 1.73937e-014 -2.14687e-014
rhumerus 16.7752 -0.7167 -96.6478
rradius 43.256
rwrist -30.6
rhand -8.47332 -315.418
rfingers 7.12502
rthumb 17.4534 15.3454
lclavicle 1.73937e-014 -2.14687e-014
lhumerus 61.4378 -47.2165 50.5192
lradius 50.0529
lwrist -28.7664
lhand -18.7896 13.7378
lfingers 7.12502
lthumb 7.50824 -316.415
rfemur -36.001 -11.9216 14.0974
rtibia 31.2495
rfoot 2.93801 -33.9259
rtoes 15.7863
lfemur -6.44593 4.94068 -36.4946
ltibia 24.391
lfoot -19.0836 -1.59358
ltoes -7.02957
